<svg xmlns="http://www.w3.org/2000/svg" width="54" height="64.764" viewBox="0 0 54 64.764"><g transform="translate(-539 -258.236)"><g transform="translate(539.021 196.994)"><g transform="translate(0.001 61.242)"><path d="M307.426,241.953a7.579,7.579,0,0,0,2.04.306,4.448,4.448,0,0,0,2.289-.576c2.225-1.317,2.487-4.572,2.509-4.939a1.054,1.054,0,0,0-.6-1.018c-.333-.156-3.316-1.489-5.54-.172a3.866,3.866,0,0,0-.62.457,1.054,1.054,0,0,0-1.889.746,15.357,15.357,0,0,1-13.69,16.869,1.054,1.054,0,0,0,.107,2.1,1.081,1.081,0,0,0,.11-.006,17.442,17.442,0,0,0,6.653-2.085,6.507,6.507,0,0,0,3.331,3.8,4.443,4.443,0,0,0,1.577.275,8.921,8.921,0,0,0,4.487-1.544,1.054,1.054,0,0,0,.419-1.108c-.038-.16-.973-3.925-3.713-4.959a4.374,4.374,0,0,0-1.391-.272q.368-.422.709-.867a7.113,7.113,0,0,0,3.815,1.371,4.153,4.153,0,0,0,1.049-.131c2.652-.69,3.877-3.939,4.007-4.307a1.054,1.054,0,0,0-.3-1.146c-.294-.257-2.947-2.491-5.6-1.807q.1-.353.178-.712.032-.14.061-.28Zm3.362,3.931a3.122,3.122,0,0,1-5.323,1.385,3.122,3.122,0,0,1,5.323-1.385Zm-1.595-8.517a3.866,3.866,0,0,1,2.86,0,2.8,2.8,0,0,1-4.232,2.5A3.85,3.85,0,0,1,309.193,237.368Zm-2.866,17.469a3.411,3.411,0,0,1-5.64-2.127,3.411,3.411,0,0,1,5.64,2.127Z" transform="translate(-260.313 -216.671)" fill="#ff9300"/><path d="M22.347,253.626a15.358,15.358,0,0,1-13.69-16.869,1.054,1.054,0,0,0-1.889-.746,3.867,3.867,0,0,0-.62-.457c-2.225-1.317-5.208.016-5.54.172a1.054,1.054,0,0,0-.6,1.018c.023.367.284,3.621,2.509,4.939a4.447,4.447,0,0,0,2.289.576,7.579,7.579,0,0,0,2.04-.306q.03.14.061.28.082.359.178.712c-2.648-.684-5.3,1.55-5.6,1.807a1.054,1.054,0,0,0-.3,1.146c.131.368,1.356,3.617,4.007,4.307a4.15,4.15,0,0,0,1.049.131,7.114,7.114,0,0,0,3.815-1.371q.341.445.709.867a4.371,4.371,0,0,0-1.391.272c-2.74,1.034-3.674,4.8-3.713,4.959a1.054,1.054,0,0,0,.419,1.108,8.92,8.92,0,0,0,4.487,1.544,4.444,4.444,0,0,0,1.577-.275,6.507,6.507,0,0,0,3.331-3.8,17.442,17.442,0,0,0,6.653,2.085,1.074,1.074,0,0,0,.11.006,1.054,1.054,0,0,0,.107-2.1ZM5.724,248.167a4.29,4.29,0,0,1-2.245-2.282,4.3,4.3,0,0,1,3.078-.9A4.29,4.29,0,0,1,8.8,247.268,4.3,4.3,0,0,1,5.724,248.167Zm-2.138-8.3a3.85,3.85,0,0,1-1.372-2.5,3.89,3.89,0,0,1,2.86,0,3.85,3.85,0,0,1,1.372,2.5A3.892,3.892,0,0,1,3.586,239.869Zm7.815,15.6a4.7,4.7,0,0,1-3.461-.633,4.69,4.69,0,0,1,2.179-2.761,4.7,4.7,0,0,1,3.461.633A4.691,4.691,0,0,1,11.4,255.47Z" transform="translate(-0.001 -216.671)" fill="#ff9300"/><path d="M143.308,86.529V67.535a1.054,1.054,0,0,0-1.269-1.032,5.435,5.435,0,0,1-1.108.114,5.374,5.374,0,0,1-5.32-4.5,1.054,1.054,0,0,0-1.039-.88H121.952a1.054,1.054,0,0,0-1.039.88,5.374,5.374,0,0,1-5.32,4.5,5.436,5.436,0,0,1-1.108-.114,1.054,1.054,0,0,0-1.269,1.032V86.529a5.65,5.65,0,0,0,3.224,5.088l11.372,5.369a1.053,1.053,0,0,0,.9,0l11.372-5.369A5.65,5.65,0,0,0,143.308,86.529Zm-15.046,8.339L117.34,89.711a3.534,3.534,0,0,1-2.016-3.182V68.72q.135,0,.269,0a7.474,7.474,0,0,0,7.2-5.375h10.945a7.474,7.474,0,0,0,7.2,5.375q.135,0,.269,0V86.529a3.534,3.534,0,0,1-2.016,3.182Z" transform="translate(-101.286 -61.242)" fill="#ff9300"/></g><g transform="translate(17.622 66.932)" opacity="0.48"><path d="M167.216,134.8V120.117a11.038,11.038,0,0,0,6.2-4.875h6.313a11.039,11.039,0,0,0,6.2,4.875V134.8l-9.356,4.417Z" transform="translate(-167.216 -115.242)" fill="#ffb01a"/></g></g><g transform="translate(2)"><rect width="54" height="17" rx="8.5" transform="translate(537 306)" fill="#ff9300"/><path d="M.8,0V-7.273H1.9v3.161H5.522V-7.273h1.1V0h-1.1V-3.171H1.9V0ZM9.318-7.273V0h-1.1V-7.273ZM10.916,0V-7.273h2.592a3.023,3.023,0,0,1,1.4.291,1.936,1.936,0,0,1,.836.8,2.454,2.454,0,0,1,.277,1.184,2.393,2.393,0,0,1-.279,1.174,1.9,1.9,0,0,1-.838.787,3.12,3.12,0,0,1-1.4.281H11.541V-3.7h1.864a2.11,2.11,0,0,0,.868-.153,1.011,1.011,0,0,0,.492-.444,1.461,1.461,0,0,0,.156-.7,1.519,1.519,0,0,0-.158-.714,1.052,1.052,0,0,0-.494-.463,2.038,2.038,0,0,0-.879-.162H12.013V0Zm3.59-3.281L16.3,0h-1.25L13.292-3.281ZM17.365,0V-7.273h4.56v.945H18.462v2.216h3.224v.941H18.462V-.945h3.5V0Zm8.384,0H23.395V-7.273h2.429a3.664,3.664,0,0,1,1.836.435,2.9,2.9,0,0,1,1.177,1.246,4.266,4.266,0,0,1,.41,1.944,4.277,4.277,0,0,1-.414,1.953A2.916,2.916,0,0,1,27.638-.439,3.8,3.8,0,0,1,25.749,0ZM24.492-.959h1.2a2.754,2.754,0,0,0,1.381-.314,1.958,1.958,0,0,0,.824-.913,3.5,3.5,0,0,0,.273-1.461A3.492,3.492,0,0,0,27.9-5.1,1.942,1.942,0,0,0,27.088-6a2.633,2.633,0,0,0-1.332-.309H24.492Z" transform="translate(549 318)" fill="#fff"/></g><g transform="translate(559.561 270.561)"><path d="M0,0H12.879V12.879H0Z" fill="none"/><path d="M7.366,2a5.366,5.366,0,1,0,5.366,5.366A5.368,5.368,0,0,0,7.366,2ZM6.293,10.049,3.61,7.366l.757-.757L6.293,8.531l4.073-4.073.757.762Z" transform="translate(-0.927 -0.927)" fill="#ff9300"/></g></g></svg>