<svg width="26" height="26" viewBox="0 0 26 26" fill="none" xmlns="http://www.w3.org/2000/svg">
<path d="M23 0H7C5.3 0 4 1.3 4 3V4H3C1.3 4 0 5.3 0 7V23C0 24.7 1.3 26 3 26H19C20.7 26 22 24.7 22 23V22H23C24.7 22 26 20.7 26 19V3C26 1.3 24.7 0 23 0ZM20 23C20 23.6 19.6 24 19 24H3C2.4 24 2 23.6 2 23V7C2 6.4 2.4 6 3 6H4V19C4 20.7 5.3 22 7 22H20V23ZM24 19C24 19.6 23.6 20 23 20H7C6.4 20 6 19.6 6 19V3C6 2.4 6.4 2 7 2H23C23.6 2 24 2.4 24 3V19Z" fill="#BC5A1E"/>
<path d="M17.2 11.3009C19.1 10.1009 19.6 7.60087 18.4 5.80087C17.2 4.00087 14.7 3.40087 12.9 4.60087C11.1 5.80087 10.5 8.30087 11.7 10.1009C12 10.6009 12.4 11.0009 12.9 11.3009C10 12.3009 8 15.0009 8 18.0009C8 18.6009 8.4 19.0009 9 19.0009H21C21.6 19.0009 22 18.6009 22 18.0009C22 15.0009 20 12.3009 17.2 11.3009ZM15 6.00087C16.1 6.00087 17 6.90087 17 8.00087C17 9.10087 16.1 10.0009 15 10.0009C13.9 10.0009 13 9.10087 13 8.00087C13 6.90087 13.9 6.00087 15 6.00087ZM10.1 17.0009C10.7 14.3009 13.3 12.5009 16 13.1009C18 13.5009 19.5 15.0009 19.9 17.0009H10.1Z" fill="#BC5A1E"/>
</svg>
