<svg xmlns="http://www.w3.org/2000/svg" width="136.036" height="126.836" viewBox="0 0 136.036 126.836"><defs><style>.a{fill:#f2f2f2;}.b{fill:#fff;}.c{fill:#407bff;}</style></defs><g transform="translate(-0.003 -0.003)"><path class="a" d="M288.4,99.168l-4.241,2.314-52.245,28.506-4.241,2.314a8.857,8.857,0,0,0-3.529,12L263.05,215.61a8.857,8.857,0,0,0,12,3.529l.011-.006,60.7-33.122.011-.006a8.857,8.857,0,0,0,3.529-12L300.4,102.7A8.857,8.857,0,0,0,288.4,99.168Z" transform="translate(-223.063 -98.086)"/><path class="b" d="M300.924,112.708l-5.023,2.741L245.22,143.1l-5.023,2.74a6.307,6.307,0,0,0-2.513,8.548L276.591,225.7a6.307,6.307,0,0,0,8.548,2.513l.011-.006,60.7-33.122.011-.006a6.307,6.307,0,0,0,2.513-8.548l-38.906-71.306A6.307,6.307,0,0,0,300.924,112.708Z" transform="translate(-234.368 -109.391)"/><path class="a" d="M479.471,224.238,456.83,236.591A1.473,1.473,0,0,1,455.419,234l22.641-12.353a1.473,1.473,0,0,1,1.411,2.586Z" transform="translate(-412.076 -198.787)"/><path class="a" d="M497.76,232.147l-27.975,15.264a1.473,1.473,0,0,1-1.411-2.586l27.975-15.264a1.473,1.473,0,0,1,1.411,2.586Z" transform="translate(-422.65 -205.242)"/><path class="a" d="M321.564,275.365l-20.873,11.389a.706.706,0,0,0-.282.958L309.3,304a.706.706,0,0,0,.958.282l20.873-11.389a.706.706,0,0,0,.282-.958l-8.888-16.29A.706.706,0,0,0,321.564,275.365Z" transform="translate(-286.118 -242.704)"/><path class="a" d="M504.757,336.679l-30.709,16.755a1.473,1.473,0,0,1-1.411-2.586l30.709-16.755a1.473,1.473,0,1,1,1.411,2.586Z" transform="translate(-426.129 -290.558)"/><path class="a" d="M523.047,344.588,487,364.254a1.473,1.473,0,1,1-1.411-2.586L521.635,342a1.473,1.473,0,0,1,1.411,2.586Z" transform="translate(-436.702 -297.014)"/><circle class="a" cx="6.25" cy="6.25" r="6.25" transform="translate(29.973 64.098)"/><path class="c" d="M593.7,277.642H524.523a6.307,6.307,0,0,0-6.3,6.3v81.229a6.307,6.307,0,0,0,6.3,6.3H593.7a6.307,6.307,0,0,0,6.3-6.3V283.942A6.307,6.307,0,0,0,593.7,277.642Z" transform="translate(-463.962 -244.632)"/><path class="b" d="M754.092,372.436H728.3a1.473,1.473,0,1,1,0-2.946h25.791a1.473,1.473,0,0,1,0,2.946Z" transform="translate(-634.219 -319.595)"/><path class="b" d="M760.169,399.483H728.3a1.473,1.473,0,1,1,0-2.946h31.868a1.473,1.473,0,0,1,0,2.946Z" transform="translate(-634.219 -341.671)"/><path class="b" d="M595.086,336.711H571.308a.706.706,0,0,0-.706.706v18.558a.706.706,0,0,0,.706.706h23.778a.706.706,0,0,0,.706-.706V337.417a.706.706,0,0,0-.706-.706Z" transform="translate(-506.713 -292.842)"/><path class="b" d="M713.072,500.41H678.089a1.473,1.473,0,1,1,0-2.946h34.983a1.473,1.473,0,0,1,0,2.946Z" transform="translate(-593.238 -424.044)"/><path class="b" d="M719.149,527.457h-41.06a1.473,1.473,0,1,1,0-2.946h41.06a1.473,1.473,0,1,1,0,2.946Z" transform="translate(-593.238 -446.12)"/><path class="b" d="M713.072,597.623H678.089a1.473,1.473,0,1,1,0-2.946h34.983a1.473,1.473,0,0,1,0,2.946Z" transform="translate(-593.238 -503.387)"/><path class="b" d="M719.149,624.671h-41.06a1.473,1.473,0,1,1,0-2.946h41.06a1.473,1.473,0,1,1,0,2.946Z" transform="translate(-593.238 -525.463)"/><circle class="b" cx="6.25" cy="6.25" r="6.25" transform="translate(64.756 71.073)"/><circle class="b" cx="6.25" cy="6.25" r="6.25" transform="translate(64.756 89.088)"/><path class="b" d="M713.072,695.623H678.089a1.473,1.473,0,1,1,0-2.946h34.983a1.473,1.473,0,0,1,0,2.946Z" transform="translate(-593.238 -583.372)"/><path class="b" d="M719.149,722.671h-41.06a1.473,1.473,0,1,1,0-2.946h41.06a1.473,1.473,0,1,1,0,2.946Z" transform="translate(-593.238 -605.448)"/><circle class="b" cx="6.25" cy="6.25" r="6.25" transform="translate(64.756 107.103)"/></g></svg>