<svg xmlns="http://www.w3.org/2000/svg" width="60" height="17" viewBox="0 0 60 17"><defs><style>.a,.d{fill:#ff5a5a;}.b{fill:none;}.c{fill:#fff;}.d{font-size:14px;font-family:CoolveticaRg-Regular, Coolvetica;letter-spacing:0.05em;}</style></defs><g transform="translate(-942 -309)"><g transform="translate(-25 12)"><path class="a" d="M15.743,8A5.556,5.556,0,0,1,16.031,6.5,2.888,2.888,0,0,0,16.2,4.723a2.918,2.918,0,0,0-1.42-1.178,5.311,5.311,0,0,1-1.218-.817,5.3,5.3,0,0,1-.817-1.218A2.921,2.921,0,0,0,11.565.089,2.888,2.888,0,0,0,9.783.257,5.549,5.549,0,0,1,8.288.544,5.55,5.55,0,0,1,6.793.257,2.883,2.883,0,0,0,5.012.089,2.917,2.917,0,0,0,3.834,1.51a5.307,5.307,0,0,1-.817,1.218A5.305,5.305,0,0,1,1.8,3.545,2.92,2.92,0,0,0,.378,4.723,2.891,2.891,0,0,0,.546,6.5,5.533,5.533,0,0,1,.834,8,5.549,5.549,0,0,1,.546,9.494a2.889,2.889,0,0,0-.168,1.782A2.919,2.919,0,0,0,1.8,12.454a5.311,5.311,0,0,1,1.218.817,5.3,5.3,0,0,1,.817,1.218,2.921,2.921,0,0,0,1.178,1.42,2.885,2.885,0,0,0,1.781-.168,5.55,5.55,0,0,1,1.495-.287,5.549,5.549,0,0,1,1.495.287,2.885,2.885,0,0,0,1.782.168,2.918,2.918,0,0,0,1.178-1.42,5.306,5.306,0,0,1,.817-1.218,5.3,5.3,0,0,1,1.218-.817,2.921,2.921,0,0,0,1.42-1.178,2.89,2.89,0,0,0-.168-1.782A5.535,5.535,0,0,1,15.743,8Z" transform="translate(966.711 298)"/><g transform="translate(969.947 301.368)"><path class="b" d="M0,0H10.105V10.105H0Z"/><circle class="c" cx="0.755" cy="0.755" r="0.755" transform="translate(4.298 7.65)"/><path class="c" d="M10,3h1.684V8.053H10Z" transform="translate(-5.79 -1.737)"/></g></g><text class="d" transform="translate(965 323)"><tspan x="0" y="0">Failed</tspan></text></g></svg>