<svg xmlns="http://www.w3.org/2000/svg" width="18.523" height="18.509" viewBox="0 0 18.523 18.509"><g transform="translate(0 0)"><path d="M17.45,12.42a24.666,24.666,0,0,1,3.122,5.064,9.126,9.126,0,0,0,1.927-5.92A8.348,8.348,0,0,0,17.45,12.42Z" transform="translate(-3.981 -2.626)"/><path d="M.33,13.652a9.25,9.25,0,0,0,7.1,6.937,10.02,10.02,0,0,1,3.808-8.857c-.886-1.01-1.349-1.449-1.788-1.873A9.967,9.967,0,0,1,.33,13.652Z" transform="translate(-0.057 -2.255)"/><path d="M5.07,1.687A26.794,26.794,0,0,1,10.211,5.2,8.348,8.348,0,0,0,10.982.014,9.157,9.157,0,0,0,5.07,1.687Z" transform="translate(-1.143 0.006)"/><path d="M-.006,10.632A8.425,8.425,0,0,0,8.227,7.356,25.059,25.059,0,0,0,2.615,3.61,9.173,9.173,0,0,0-.006,10.632Z" transform="translate(0.024 -0.823)"/><path d="M11.564,21.66a9.188,9.188,0,0,0,6.483-2.4,23.224,23.224,0,0,0-3.284-5.473,8.41,8.41,0,0,0-3.2,7.87Z" transform="translate(-2.612 -3.156)"/><path d="M13.28,6.352a25.483,25.483,0,0,1,2.212,2.312,10.021,10.021,0,0,1,5.851-1.226A9.25,9.25,0,0,0,14.405.34,9.874,9.874,0,0,1,13.28,6.352Z" transform="translate(-3.025 -0.073)"/></g></svg>